Coordinates
version=1
nRows=11
nColumns=46
inDegrees=yes

Units are S.I. units (second, meters, Newtons, ...)
Angles are in degrees.

endheader
time	pelvis_tilt	pelvis_list	pelvis_rotation	pelvis_tx	pelvis_ty	pelvis_tz	bb_angle	bb_tx	bb_ty	bb_tz	hip_flexion_r	hip_adduction_r	hip_rotation_r	knee_angle_r	knee_angle_r_beta	ankle_angle_r	subtalar_angle_r	mtp_angle_r	crank_angle_r	hip_flexion_l	hip_adduction_l	hip_rotation_l	knee_angle_l	knee_angle_l_beta	ankle_angle_l	subtalar_angle_l	mtp_angle_l	crank_angle_l	lumbar_extension	lumbar_bending	lumbar_rotation	arm_flex_r	arm_add_r	arm_rot_r	elbow_flex_r	pro_sup_r	wrist_flex_r	wrist_dev_r	arm_flex_l	arm_add_l	arm_rot_l	elbow_flex_l	pro_sup_l	wrist_flex_l	wrist_dev_l
      5.00500000	    -19.67940022	     10.03180147	      8.86516014	      0.38565143	      1.17816799	     -0.23936536	      0.00000000	      0.50000000	      0.00000000	      0.25000000	     17.35271346	    -15.17025248	      0.04028598	     30.00428848	      0.52367362	    -11.04994493	     -4.61284654	      0.00000000	      0.00000000	     70.62970915	      7.76491971	     -2.71575941	    105.60114702	      1.84308771	      0.19971923	     -8.64688309	      0.00000000	      0.00000000	    -58.60235440	     -2.21249568	     -4.60359162	     25.84953991	    -15.23092756	      2.01809699	     93.94837278	     50.67891756	      0.00000000	      0.00000000	     45.72957544	    -14.21511272	     31.37426169	     76.33750363	     55.94034243	      0.00000000	      0.00000000
      5.01000000	    -19.56287088	      9.88056360	      9.53711783	      0.38556647	      1.18055649	     -0.23990619	      0.00000000	      0.50000000	      0.00000000	      0.25000000	     18.00010022	    -15.13606566	      0.02077024	     32.27716631	      0.56334283	    -12.77959299	     -5.00465889	      0.00000000	      0.00000000	     70.20445734	      8.40000989	     -2.34357080	    104.40893215	      1.82227963	      1.86824018	     -8.81377275	      0.00000000	      0.00000000	    -59.23486529	     -1.80193917	     -4.77552142	     26.09593693	    -15.21308527	      1.87037287	     93.95856753	     50.66542529	      0.00000000	      0.00000000	     46.09852188	    -14.09288337	     31.36549386	     76.54252637	     55.96644687	      0.00000000	      0.00000000
      5.01500000	    -19.70531658	     10.07061933	     10.34506746	      0.38549385	      1.18326283	     -0.24060338	      0.00000000	      0.50000000	      0.00000000	      0.25000000	     19.05282969	    -15.53550165	      0.05880894	     34.70554184	      0.60572597	    -15.07967886	     -6.11345991	      0.00000000	      0.00000000	     69.54070369	      9.68241744	     -2.07502885	    102.65368936	      1.79164487	      4.29548296	     -8.89277524	      0.00000000	      0.00000000	    -59.78002998	     -1.56629754	     -5.39231327	     26.23570477	    -15.05566936	      1.46083143	     94.15680918	     50.66348781	      0.00000000	      0.00000000	     46.48366585	    -14.10815645	     31.43189770	     76.97334815	     56.03721346	      0.00000000	      0.00000000
      5.02000000	    -19.59659307	      9.92485875	     10.99615083	      0.38540939	      1.18586536	     -0.24097354	      0.00000000	      0.50000000	      0.00000000	      0.25000000	     20.06223645	    -15.53535557	      0.13211651	     37.26010671	      0.65031154	    -17.49253874	     -6.37558379	      0.00000000	      0.00000000	     68.72903124	     10.33175195	     -1.62735987	    101.03847512	      1.76345406	      6.29760478	     -9.09937183	      0.00000000	      0.00000000	    -60.44156859	     -1.12518946	     -5.63720235	     26.57925207	    -14.96319180	      1.22018372	     94.29514867	     50.66177533	      0.00000000	      0.00000000	     46.91663135	    -14.07703444	     31.40159193	     77.25750450	     56.07219541	      0.00000000	      0.00000000
      5.02500000	    -19.59863488	     10.04606238	     11.65767512	      0.38532905	      1.18852386	     -0.24132033	      0.00000000	      0.50000000	      0.00000000	      0.25000000	     21.24515040	    -15.75457352	      0.57778443	     39.79893030	      0.69462237	    -20.45884989	     -7.26002854	      0.00000000	      0.00000000	     67.79224406	     11.11049364	     -1.34703729	     99.15595856	      1.73059795	      8.71240496	     -8.22557337	      0.00000000	      0.00000000	    -61.08782185	     -0.91014406	     -5.97118326	     26.47601526	    -14.77020783	      0.49452755	     94.73058017	     50.67235160	      0.00000000	      0.00000000	     47.29704839	    -14.40754190	     30.55882607	     78.29269587	     56.13163146	      0.00000000	      0.00000000
      5.03000000	    -19.50342935	      9.83300491	     12.27837800	      0.38531397	      1.19102919	     -0.24166105	      0.00000000	      0.50000000	      0.00000000	      0.25000000	     22.38240487	    -15.61220175	      0.89672590	     42.18643882	      0.73629226	    -23.66531395	     -7.62618905	      0.00000000	      0.00000000	     66.68592138	     11.64568640	     -0.79899421	     97.23297432	      1.69703554	     11.09882854	     -7.82108529	      0.00000000	      0.00000000	    -61.75786932	     -0.28018844	     -6.37093473	     26.85786015	    -14.31526254	      0.17742964	     95.12886416	     50.72097803	      0.00000000	      0.00000000	     47.31590361	    -14.70167237	     30.01325729	     79.35342577	     56.23863238	      0.00000000	      0.00000000
      5.03500000	    -19.29188784	      9.53499450	     12.85369789	      0.38540226	      1.19321437	     -0.24172393	      0.00000000	      0.50000000	      0.00000000	      0.25000000	     23.47604449	    -15.32588245	      1.23511212	     44.59275550	      0.77829041	    -26.96820621	     -7.76753767	      0.00000000	      0.00000000	     65.58402102	     11.70506442	     -0.33708509	     95.38372072	      1.66475998	     13.04325785	     -6.78997029	      0.00000000	      0.00000000	    -62.42615537	      0.35886476	     -6.71668247	     27.26526832	    -14.02632872	      0.21852187	     95.25844955	     50.75929236	      0.00000000	      0.00000000	     47.38323362	    -15.03196148	     29.61509543	     80.18726109	     56.32482603	      0.00000000	      0.00000000
      5.04000000	    -19.27172016	      9.18150739	     13.55160762	      0.38539111	      1.19526358	     -0.24244035	      0.00000000	      0.50000000	      0.00000000	      0.25000000	     24.76959876	    -15.11530489	      1.45691523	     46.90595969	      0.81866344	    -30.26360425	     -7.33302795	      0.00000000	      0.00000000	     64.37780472	     12.15351905	      0.22795440	     93.11233283	      1.62511678	     14.81457019	     -7.08575024	      0.00000000	      0.00000000	    -62.88004831	      1.17185012	     -7.11830252	     27.79655720	    -13.80186754	      0.43245120	     95.28324328	     50.78698365	      0.00000000	      0.00000000	     47.36143922	    -14.92309669	     30.15497491	     80.37385729	     56.42014370	      0.00000000	      0.00000000
      5.04500000	    -19.06769580	      8.75167421	     14.18762049	      0.38563456	      1.19721837	     -0.24276049	      0.00000000	      0.50000000	      0.00000000	      0.25000000	     25.80831136	    -14.69974298	      1.54781387	     49.07445413	      0.85651080	    -33.51255765	     -7.34310749	      0.00000000	      0.00000000	     62.91560335	     12.36457704	      0.88882434	     90.76096431	      1.58407766	     16.32545628	     -7.17057531	      0.00000000	      0.00000000	    -63.44525933	      1.98059875	     -7.65753281	     28.45729718	    -13.37912313	      1.02059728	     94.98790791	     50.81905147	      0.00000000	      0.00000000	     47.32078956	    -15.96061593	     30.14917374	     81.54016538	     56.58465923	      0.00000000	      0.00000000
      5.05000000	    -19.01666275	      8.45736020	     14.92843313	      0.38568313	      1.19883938	     -0.24362362	      0.00000000	      0.50000000	      0.00000000	      0.25000000	     26.98378562	    -14.61958393	      1.48396508	     51.21446224	      0.89386099	    -36.36583464	     -6.88583175	      0.00000000	      0.00000000	     61.27529516	     13.10962654	      1.59986471	     87.94751166	      1.53497365	     17.52301492	     -8.62771371	      0.00000000	      0.00000000	    -63.76094399	      2.90804277	     -8.97923640	     29.67549489	    -12.70491029	      2.48137448	     93.87619070	     50.84948537	      0.00000000	      0.00000000	     46.33103762	    -17.14111915	     28.61396838	     83.40322197	     56.60037475	      0.00000000	      0.00000000
      5.05500000	    -18.94077327	      7.82006584	     15.54447236	      0.38585284	      1.19983376	     -0.24454751	      0.00000000	      0.50000000	      0.00000000	      0.25000000	     28.06083747	    -14.07556776	      1.50650818	     53.19798393	      0.92847997	    -38.43806079	     -6.08217123	      0.00000000	      0.00000000	     59.85064870	     13.24794099	      2.48079484	     85.36704664	      1.48993604	     18.53359768	     -8.83405375	      0.00000000	      0.00000000	    -63.97413654	      3.81994075	     -8.79942673	     29.87252400	    -12.72748574	      2.53427028	     93.84253315	     50.85063393	      0.00000000	      0.00000000	     46.37433437	    -17.17146378	     28.49644609	     83.55802797	     56.60458624	      0.00000000	      0.00000000
